<?xml version="1.0" standalone="no"?>
<!DOCTYPE svg PUBLIC "-//W3C//DTD SVG 20010904//EN"
 "http://www.w3.org/TR/2001/REC-SVG-20010904/DTD/svg10.dtd">
<svg version="1.0" xmlns="http://www.w3.org/2000/svg"
 width="974.000000pt" height="1024.000000pt" viewBox="0 0 974.000000 1024.000000"
 preserveAspectRatio="xMidYMid meet">

<g transform="translate(0.000000,1024.000000) scale(0.100000,-0.100000)"
fill="#000000" stroke="none">
<path d="M4620 8829 c-494 -50 -939 -270 -1296 -641 -308 -320 -479 -655 -561
-1098 -26 -140 -26 -573 1 -720 76 -425 253 -775 553 -1090 188 -198 374 -336
608 -450 354 -174 742 -239 1155 -195 472 50 867 235 1217 569 369 352 583
770 643 1259 16 132 13 432 -5 567 -64 465 -257 844 -604 1191 -331 329 -680
513 -1121 588 -146 25 -441 35 -590 20z"/>
<path d="M8260 6685 l0 -425 -405 0 -405 0 0 -235 0 -235 405 0 405 0 0 -425
0 -425 245 0 245 0 2 423 3 422 408 3 407 2 0 235 0 235 -407 2 -408 3 -3 423
-2 422 -245 0 -245 0 0 -425z"/>
<path d="M2714 4959 c-205 -18 -403 -73 -579 -161 -140 -71 -235 -138 -344
-242 -339 -328 -572 -822 -702 -1491 -19 -97 -21 -132 -16 -300 13 -431 133
-809 312 -986 207 -203 511 -334 859 -368 153 -15 5049 -15 5202 0 264 26 490
100 677 222 217 142 307 259 390 508 104 308 141 708 89 949 -69 318 -153 593
-241 788 -188 414 -417 696 -706 867 -220 130 -421 191 -708 216 l-137 12 -63
-31 c-35 -17 -124 -70 -198 -118 -458 -295 -520 -331 -734 -417 -347 -141
-630 -200 -960 -200 -327 -1 -618 57 -956 191 -213 85 -308 137 -672 374 -94
62 -209 131 -255 155 -90 47 -92 47 -258 32z"/>
</g>
</svg>
